<svg xmlns="http://www.w3.org/2000/svg" xml:space="preserve" width="100" height="100" viewBox="0 0 26.458 26.458"><path d="M71.95 83.356a4.466 4.466 0 0 0 4.465-4.466v-3.725a4.466 4.466 0 0 0-4.466-4.466h-7.02a1.171 1.171 0 0 0-1.171 1.17v7.02a4.466 4.466 0 0 0 4.466 4.467zm0-2.314h-3.726a2.152 2.152 0 0 1-2.152-2.152v-5.878h5.877a2.152 2.152 0 0 1 2.153 2.153v3.725a2.152 2.152 0 0 1-2.153 2.152zM58.149 83.356a4.466 4.466 0 0 0 4.466-4.466v-7.02a1.171 1.171 0 0 0-1.172-1.171h-7.02a4.466 4.466 0 0 0-4.466 4.466v3.725a4.466 4.466 0 0 0 4.466 4.466zm0-2.314h-3.726a2.152 2.152 0 0 1-2.152-2.152v-3.725a2.152 2.152 0 0 1 2.152-2.153h5.878v5.878a2.152 2.152 0 0 1-2.152 2.152ZM71.95 69.555a4.466 4.466 0 0 0 4.465-4.466v-3.725a4.466 4.466 0 0 0-4.466-4.466h-3.725a4.466 4.466 0 0 0-4.466 4.466v7.02a1.171 1.171 0 0 0 1.171 1.171zm0-2.313h-5.878v-5.878a2.152 2.152 0 0 1 2.152-2.152h3.725a2.152 2.152 0 0 1 2.153 2.152v3.725a2.152 2.152 0 0 1-2.153 2.153zM57.995 69.555h-3.572a4.466 4.466 0 0 1-4.466-4.466v-3.725a4.466 4.466 0 0 1 4.466-4.466h3.726a4.466 4.466 0 0 1 4.466 4.466v3.572a1.157 1.157 0 0 1-2.314 0v-3.572a2.152 2.152 0 0 0-2.152-2.152h-3.726a2.152 2.152 0 0 0-2.152 2.152v3.725a2.152 2.152 0 0 0 2.152 2.153h3.572a1.157 1.157 0 0 1 0 2.313zM60.301 68.399a1.157 1.157 0 0 0 2.314 0 1.157 1.157 0 0 0-2.314 0z" style="fill:#000;stroke:none;stroke-width:.264583" transform="translate(-49.957 -56.898)"/></svg>