<svg xmlns="http://www.w3.org/2000/svg" xml:space="preserve" width="528.677" height="100" viewBox="0 0 139.879 26.458"><path d="M71.95 83.356a4.466 4.466 0 0 0 4.465-4.466v-3.725a4.466 4.466 0 0 0-4.466-4.466h-7.02a1.171 1.171 0 0 0-1.171 1.17v7.02a4.466 4.466 0 0 0 4.466 4.467zm0-2.314h-3.726a2.152 2.152 0 0 1-2.152-2.152v-5.878h5.877a2.152 2.152 0 0 1 2.153 2.153v3.725a2.152 2.152 0 0 1-2.153 2.152zM58.149 83.356a4.466 4.466 0 0 0 4.466-4.466v-7.02a1.171 1.171 0 0 0-1.172-1.171h-7.02a4.466 4.466 0 0 0-4.466 4.466v3.725a4.466 4.466 0 0 0 4.466 4.466zm0-2.314h-3.726a2.152 2.152 0 0 1-2.152-2.152v-3.725a2.152 2.152 0 0 1 2.152-2.153h5.878v5.878a2.152 2.152 0 0 1-2.152 2.152ZM71.95 69.555a4.466 4.466 0 0 0 4.465-4.466v-3.725a4.466 4.466 0 0 0-4.466-4.466h-3.725a4.466 4.466 0 0 0-4.466 4.466v7.02a1.171 1.171 0 0 0 1.171 1.171zm0-2.313h-5.878v-5.878a2.152 2.152 0 0 1 2.152-2.152h3.725a2.152 2.152 0 0 1 2.153 2.152v3.725a2.152 2.152 0 0 1-2.153 2.153zM57.995 69.555h-3.572a4.466 4.466 0 0 1-4.466-4.466v-3.725a4.466 4.466 0 0 1 4.466-4.466h3.726a4.466 4.466 0 0 1 4.466 4.466v3.572a1.157 1.157 0 0 1-2.314 0v-3.572a2.152 2.152 0 0 0-2.152-2.152h-3.726a2.152 2.152 0 0 0-2.152 2.152v3.725a2.152 2.152 0 0 0 2.152 2.153h3.572a1.157 1.157 0 0 1 0 2.313zM60.301 68.399a1.157 1.157 0 0 0 2.314 0 1.157 1.157 0 0 0-2.314 0z" style="fill:#000;stroke:none;stroke-width:.264583" transform="translate(-49.957 -56.898)"/><g aria-label="Widgets Inc." style="font-size:19.3478px;letter-spacing:0;word-spacing:0;stroke-width:.264583"><path d="M60.557 18.187v9.287q0 1.738-1.048 2.834-1.049 1.096-2.712 1.096-2.002 0-3.06-1.823-.652.982-1.399 1.407-.746.416-1.842.416-1.738 0-2.664-1.096-.926-1.096-.926-3.155v-8.966h3.836v8.39q0 .623.094.821.104.199.407.199.566 0 .566-.954v-8.456h3.836v8.39q0 .604.104.812.104.208.406.208.567 0 .567-1.02v-8.39zM66.15 21.664v9.419h-3.533v-9.42zm-1.757-4.204q.718 0 1.238.51.529.5.529 1.19 0 .737-.501 1.21-.491.472-1.266.472t-1.275-.472q-.492-.473-.492-1.21 0-.69.52-1.19.529-.51 1.247-.51zM74.03 18.187h3.532v7.85q0 2.164-1.133 3.525-.652.784-1.663 1.247-1.001.463-2.06.463-2.106 0-3.552-1.417-1.445-1.417-1.445-3.477 0-1.993 1.436-3.448 1.436-1.455 3.4-1.455.313 0 .946.057v3.892q-.435-.34-.87-.34-.547 0-.944.406-.388.397-.388.964 0 .548.407.944.406.388.973.388 1.36 0 1.36-1.88zM84.45 27.2v3.24q-.766.284-1.465.284-1.71 0-2.9-1.295-1.181-1.294-1.181-3.164 0-2.022 1.426-3.41 1.427-1.39 3.505-1.39 1.106 0 2.116.445 1.011.444 1.588 1.19.963 1.237.963 3.59v3.098q0 2.523-1.436 4.091-1.426 1.578-3.722 1.578-.7 0-1.767-.35v-3.212q.69.378 1.399.378.954 0 1.473-.633.52-.623.52-1.795v-3.543q0-1.483-1.2-1.483-.51 0-.897.397-.378.387-.378.898 0 .538.359.897.368.359.907.359.359 0 .69-.17zM99.839 26.945h-5.357q-.123-.406-.123-.746 0-.473.17-.926h1.795q-.189-1.049-1.18-1.049-.662 0-1.077.567-.416.557-.416 1.436 0 .916.397 1.483.406.567 1.058.567.529 0 1.02-.53l2.012 2.42q-1.407 1.105-3.127 1.105-2.097 0-3.524-1.408-1.426-1.408-1.426-3.486 0-2.069 1.436-3.495 1.445-1.427 3.543-1.427 2.05 0 3.438 1.398 1.399 1.389 1.399 3.43 0 .207-.038.66zM104.449 18.187v3.61h1.587v3.73h-1.587q0 1.125.35 1.55.358.425 1.303.425v3.713q-.274.01-.406.01-1.2 0-2.267-.558-1.058-.557-1.7-1.512-.813-1.218-.813-3.23v-7.738zM113.679 21.796v3.722q-.746 0-1.03.284-.274.274-.35 1.096-.245 2.73-2.116 3.854-.992.586-2.815.586h-.491v-3.741h.16q.85 0 1.21-.35.368-.359.425-1.247.075-1.445.264-2.031.199-.586.794-1.162 1.04-1.01 2.881-1.01zM123.768 18.187v12.896h-3.835V18.187ZM134.482 31.083h-3.534v-5.319q0-.812-.67-.812-.662 0-.662.812v5.319h-3.533V25.83q0-1.842 1.219-3.099 1.218-1.265 2.985-1.265 2.022 0 3.24 1.464.955 1.143.955 3.184zM142.323 26.746l3.505-.132q-.152 2.04-1.521 3.354-1.37 1.313-3.335 1.313-2.079 0-3.515-1.445-1.426-1.446-1.426-3.543 0-1.993 1.445-3.41 1.446-1.417 3.467-1.417 1.767 0 3.118 1.114 1.35 1.115 1.682 2.844l-3.58.132q-.464-.604-1.172-.604-.605 0-.992.396-.388.397-.388 1.002 0 .614.407 1.03.415.415 1.03.415.897 0 1.275-1.049zM149.984 26.85q.926 0 1.587.671.671.67.671 1.597 0 .926-.661 1.577-.661.643-1.597.643-.973 0-1.606-.624-.623-.633-.623-1.606 0-.944.652-1.596.651-.662 1.577-.662z" style="-inkscape-font-specification:&quot;Bauhaus 93, &quot;" transform="translate(-12.363 -11.112)"/></g></svg>